<svg width="40" height="40" viewBox="0 0 40 40" fill="none" xmlns="http://www.w3.org/2000/svg">
<rect width="40" height="40" rx="20" fill="#CEA5EE"/>
<path d="M11.7266 23V21L9.10938 17.3633H10.7695L12.4531 19.7773H12.4961L14.1758 17.3633H15.8398L13.2227 21V23H11.7266ZM19.582 23.1289C18.8685 23.1289 18.2474 23.0091 17.7188 22.7695C17.1901 22.5273 16.7799 22.1862 16.4883 21.7461C16.1992 21.306 16.0547 20.7852 16.0547 20.1836V20.1758C16.0547 19.5742 16.1992 19.0534 16.4883 18.6133C16.7799 18.1732 17.1901 17.8333 17.7188 17.5938C18.2474 17.3542 18.8685 17.2344 19.582 17.2344C20.2956 17.2344 20.9167 17.3542 21.4453 17.5938C21.974 17.8333 22.3828 18.1732 22.6719 18.6133C22.9635 19.0534 23.1094 19.5742 23.1094 20.1758V20.1836C23.1094 20.7852 22.9635 21.306 22.6719 21.7461C22.3828 22.1862 21.974 22.5273 21.4453 22.7695C20.9167 23.0091 20.2956 23.1289 19.582 23.1289ZM19.582 21.957C19.9857 21.957 20.3372 21.8854 20.6367 21.7422C20.9388 21.5964 21.1719 21.3906 21.3359 21.125C21.5 20.8568 21.582 20.543 21.582 20.1836V20.1758C21.582 19.8138 21.5 19.5013 21.3359 19.2383C21.1719 18.9727 20.9388 18.7669 20.6367 18.6211C20.3372 18.4753 19.9857 18.4023 19.582 18.4023C19.1758 18.4023 18.8229 18.4753 18.5234 18.6211C18.224 18.7669 17.9922 18.9727 17.8281 19.2383C17.6641 19.5013 17.582 19.8138 17.582 20.1758V20.1836C17.582 20.543 17.6641 20.8568 17.8281 21.125C17.9922 21.3906 18.224 21.5964 18.5234 21.7422C18.8229 21.8854 19.1758 21.957 19.582 21.957ZM27.3906 23.1211C26.763 23.1211 26.2188 23.0195 25.7578 22.8164C25.2969 22.6133 24.9388 22.3164 24.6836 21.9258C24.431 21.5326 24.3047 21.0534 24.3047 20.4883V17.3633H25.8047V20.4492C25.8047 20.7695 25.8646 21.0417 25.9844 21.2656C26.1068 21.487 26.2852 21.6562 26.5195 21.7734C26.7565 21.888 27.0482 21.9453 27.3945 21.9453C27.7409 21.9453 28.0312 21.888 28.2656 21.7734C28.5026 21.6562 28.681 21.487 28.8008 21.2656C28.9206 21.0417 28.9805 20.7695 28.9805 20.4492V17.3633H30.4805V20.4883C30.4805 21.0534 30.3542 21.5312 30.1016 21.9219C29.849 22.3125 29.4909 22.6107 29.0273 22.8164C28.5664 23.0195 28.0208 23.1211 27.3906 23.1211Z" fill="black"/>
</svg>
